<?xml version="1.0" standalone="no"?>
<!DOCTYPE svg PUBLIC "-//W3C//DTD SVG 20010904//EN"
 "http://www.w3.org/TR/2001/REC-SVG-20010904/DTD/svg10.dtd">
<svg version="1.0" xmlns="http://www.w3.org/2000/svg"
 width="2609.000000pt" height="521.000000pt" viewBox="0 0 2609.000000 521.000000"
 preserveAspectRatio="xMidYMid meet">

<g transform="translate(0.000000,535.000000) scale(0.100000,-0.100000)"
fill="#ffffff" stroke="none">
<path d="M12495 4058 c-95 -24 -309 -64 -427 -78 -97 -12 -98 -13 -98 -40 0
-27 1 -27 82 -34 109 -9 163 -34 186 -83 15 -33 17 -87 20 -435 2 -257 0 -398
-6 -398 -6 0 -30 28 -55 63 -57 79 -131 149 -194 180 -97 50 -247 60 -377 27
-294 -75 -494 -339 -557 -736 -16 -102 -16 -326 0 -429 60 -391 266 -664 560
-740 148 -38 274 -26 408 40 79 39 150 108 205 201 18 30 35 54 39 54 3 0 9
-32 13 -71 7 -77 34 -209 45 -221 4 -4 58 5 121 21 114 29 203 45 330 59 64 7
65 8 68 38 l3 31 -88 7 c-97 7 -146 26 -177 69 -21 28 -21 35 -26 1261 l-5
1232 -70 -18z m-626 -888 c81 -14 132 -40 190 -98 124 -125 187 -345 198 -692
13 -423 -52 -706 -193 -840 -79 -75 -129 -95 -239 -95 -78 0 -97 4 -146 28
-66 32 -147 113 -182 183 -37 74 -76 204 -94 323 -25 153 -24 535 1 685 51
311 163 475 345 506 25 4 48 8 51 9 3 0 34 -4 69 -9z"/>
<path d="M1725 4038 c-49 -5 -204 -7 -342 -5 l-253 5 0 -43 0 -42 98 -12 c126
-15 179 -41 210 -101 27 -55 28 -97 7 -550 -16 -359 -40 -912 -55 -1290 -13
-321 -18 -377 -40 -426 -28 -65 -90 -93 -242 -109 l-58 -6 0 -45 0 -44 73 7
c39 5 185 8 322 8 138 0 283 -3 323 -8 l72 -7 0 44 0 45 -57 6 c-163 17 -244
55 -263 123 -13 47 -13 201 0 502 5 129 17 415 25 635 8 220 20 510 25 645 5
135 11 280 11 323 1 43 5 80 9 82 4 3 20 -28 35 -68 45 -119 347 -935 495
-1337 165 -449 320 -883 320 -899 0 -6 15 -11 33 -11 32 0 32 1 66 103 18 56
119 334 223 617 105 283 221 598 258 700 38 102 125 338 194 525 70 187 129
347 132 355 15 42 24 -32 24 -205 0 -104 7 -575 16 -1045 18 -935 18 -918 -39
-975 -34 -34 -113 -59 -219 -70 l-58 -6 0 -45 0 -45 43 5 c257 35 652 35 905
1 l42 -6 0 45 0 45 -57 6 c-159 17 -214 42 -247 109 -17 35 -20 74 -27 310 -9
305 -26 1074 -35 1577 l-6 334 24 45 c31 60 86 86 212 101 l96 12 0 42 0 42
-267 -1 c-148 -1 -304 1 -348 4 l-80 5 -126 -340 c-521 -1395 -617 -1649 -625
-1652 -5 -2 -21 30 -36 69 -15 40 -115 314 -223 608 -490 1336 -482 1314 -492
1316 -4 1 -48 -3 -98 -8z"/>
<path d="M17320 3986 l0 -44 68 -7 c153 -15 217 -48 244 -124 19 -54 19 -2160
0 -2214 -25 -70 -72 -91 -274 -122 -37 -6 -38 -7 -38 -50 l0 -45 524 0 c716 0
842 12 1021 101 347 170 503 607 341 954 -88 188 -234 302 -448 349 -16 4 -28
10 -28 14 0 4 39 27 87 52 174 88 286 235 318 417 18 101 18 132 0 239 -44
251 -208 424 -470 496 -78 22 -96 22 -712 26 l-633 3 0 -45z m1222 -105 c72
-28 161 -108 194 -173 45 -90 58 -161 58 -323 0 -116 -4 -165 -18 -215 -42
-145 -141 -268 -250 -309 -68 -25 -268 -43 -431 -39 l-120 3 -3 543 -2 543
257 -3 c241 -3 262 -5 315 -27z m-5 -1185 c185 -33 288 -125 350 -311 25 -75
27 -92 27 -260 0 -169 -2 -185 -27 -261 -48 -145 -129 -244 -247 -304 -91 -46
-177 -60 -363 -60 -195 1 -249 14 -282 70 -19 34 -20 52 -23 588 l-3 552 243
0 c167 0 269 -5 325 -14z"/>
<path d="M8770 3240 c-28 -55 -53 -100 -56 -100 -3 0 -27 18 -52 41 -96 84
-199 119 -351 119 -107 0 -186 -14 -271 -47 -255 -100 -434 -351 -496 -693
-23 -127 -23 -372 0 -497 82 -450 367 -724 753 -723 342 1 562 214 628 608 l7
42 -79 0 -78 0 -22 -103 c-44 -202 -146 -347 -280 -397 -72 -27 -200 -29 -272
-5 -167 55 -272 223 -318 509 -22 138 -22 484 0 621 47 292 145 473 295 547
63 31 73 33 172 33 95 -1 111 -3 163 -29 130 -63 232 -217 277 -419 l13 -57
44 0 43 0 0 325 0 325 -35 0 c-34 0 -36 -2 -85 -100z"/>
<path d="M15926 3257 c-16 -39 -32 -76 -36 -80 -4 -4 -40 10 -81 32 -105 57
-202 81 -322 81 -307 0 -536 -159 -588 -409 -19 -91 -7 -246 23 -311 61 -133
148 -192 543 -370 256 -115 313 -152 373 -243 25 -37 27 -49 27 -136 0 -85 -3
-102 -27 -146 -129 -246 -510 -288 -714 -80 -64 66 -131 197 -165 323 l-22 83
-36 -3 -36 -3 -3 -333 -2 -333 32 3 c30 3 37 10 73 80 23 43 46 83 52 89 8 8
24 1 61 -25 70 -51 170 -94 260 -112 92 -20 276 -14 367 10 162 44 299 149
366 281 49 96 64 155 64 260 0 115 -17 181 -67 255 -68 102 -180 172 -468 295
-388 165 -471 239 -457 411 6 79 35 142 90 198 143 143 399 152 546 20 65 -59
116 -160 140 -279 l18 -90 42 -3 41 -3 0 305 0 306 -32 0 c-31 0 -34 -3 -62
-73z"/>
<path d="M6415 3294 c-49 -13 -163 -34 -252 -46 l-163 -22 0 -33 0 -33 83 -1
c97 -1 143 -15 171 -53 21 -27 21 -36 21 -784 0 -713 -1 -759 -18 -790 -23
-41 -81 -69 -163 -77 -103 -11 -104 -11 -104 -51 l0 -37 38 6 c122 20 415 28
595 17 104 -6 203 -14 219 -17 29 -6 29 -5 26 33 l-3 39 -73 7 c-95 10 -155
36 -179 80 -17 30 -18 71 -21 523 -3 497 3 623 34 753 37 153 127 282 220 318
60 23 146 15 178 -15 32 -30 37 -62 24 -142 -10 -59 -10 -69 8 -99 27 -46 77
-70 144 -70 112 0 167 74 158 213 -8 121 -59 197 -172 254 -74 38 -215 44
-305 13 -126 -42 -220 -124 -284 -247 -17 -35 -35 -63 -38 -63 -3 0 -9 39 -13
88 -9 119 -28 262 -35 261 -3 -1 -46 -12 -96 -25z"/>
<path d="M21732 3295 c-77 -25 -221 -57 -339 -75 -71 -12 -73 -13 -73 -41 0
-33 8 -36 120 -42 41 -2 85 -10 98 -18 53 -33 52 -18 52 -817 l0 -739 -23 -34
c-29 -43 -76 -67 -152 -74 -104 -11 -105 -11 -105 -51 0 -35 1 -36 33 -30 17
3 114 11 215 17 173 10 454 2 573 -17 l39 -7 0 36 c0 34 -2 36 -37 42 -142 21
-178 38 -211 98 -16 29 -17 81 -17 607 0 618 2 636 55 756 25 59 104 141 163
170 70 36 189 51 278 36 120 -21 186 -69 233 -172 43 -95 47 -155 44 -792 -3
-585 -3 -597 -24 -625 -26 -36 -78 -61 -140 -69 -93 -10 -94 -11 -94 -50 0
-35 1 -36 30 -31 94 19 403 28 583 17 104 -6 203 -14 219 -17 27 -5 28 -4 28
31 0 40 6 37 -119 54 -83 12 -117 31 -143 83 -16 31 -18 80 -18 579 0 546 -6
670 -37 780 -68 240 -279 390 -548 390 -204 0 -369 -81 -485 -238 -25 -34 -48
-61 -51 -62 -3 0 -9 42 -12 93 -3 52 -12 126 -18 165 -14 83 -9 81 -117 47z"/>
<path d="M4851 3285 c-81 -18 -189 -69 -261 -123 -145 -109 -253 -300 -307
-544 -28 -129 -26 -507 5 -636 66 -285 201 -467 421 -570 144 -67 355 -90 519
-56 242 49 423 222 495 474 13 47 27 102 30 123 l6 38 -76 -3 -75 -3 -24 -95
c-31 -124 -73 -207 -141 -280 -103 -111 -245 -158 -421 -139 -280 30 -429 282
-449 757 l-6 142 593 0 593 0 -6 113 c-23 426 -194 700 -497 792 -77 24 -313
30 -399 10z m281 -96 c165 -43 274 -259 303 -601 l7 -78 -431 0 -431 0 0 33
c0 47 28 202 51 282 86 296 264 426 501 364z"/>
<path d="M9855 3293 c-67 -9 -189 -57 -257 -102 -110 -71 -190 -165 -254 -296
-106 -216 -145 -485 -113 -772 54 -483 319 -759 749 -780 183 -9 319 25 452
113 133 89 227 238 273 434 24 104 26 100 -59 100 l-74 0 -17 -75 c-50 -224
-167 -374 -333 -425 -128 -40 -305 -24 -407 35 -50 29 -122 105 -158 165 -64
110 -109 315 -123 558 l-7 122 597 0 598 0 -7 83 c-17 222 -49 358 -115 492
-89 182 -237 300 -425 340 -64 13 -244 18 -320 8z m258 -110 c108 -34 204
-166 246 -338 22 -87 41 -225 41 -292 l0 -43 -430 0 c-282 0 -430 3 -430 10 0
35 34 227 51 290 86 313 279 451 522 373z"/>
<path d="M13610 3285 c-36 -8 -103 -33 -150 -56 -115 -57 -246 -186 -307 -304
-96 -187 -133 -360 -133 -619 0 -310 67 -536 210 -713 128 -158 348 -253 588
-253 334 0 576 178 665 490 13 47 27 102 31 123 l7 38 -77 -3 -76 -3 -24 -95
c-47 -187 -134 -309 -268 -375 -177 -88 -419 -55 -544 73 -122 125 -202 401
-202 693 l0 89 590 0 590 0 0 73 c0 39 -7 115 -15 167 -53 354 -208 574 -460
657 -67 22 -102 26 -220 29 -98 3 -160 -1 -205 -11z m236 -86 c207 -38 317
-228 350 -606 l7 -83 -432 0 -431 0 0 28 c0 15 7 67 15 116 53 323 170 503
355 542 71 16 67 16 136 3z"/>
<path d="M20235 3293 c-118 -16 -286 -105 -377 -199 -177 -186 -270 -496 -255
-854 13 -316 102 -550 272 -708 80 -76 164 -123 280 -158 80 -24 107 -27 240
-28 117 -1 164 3 215 18 244 68 402 239 469 505 31 126 34 121 -52 121 l-74 0
-22 -92 c-40 -163 -104 -271 -204 -345 -80 -58 -166 -84 -284 -84 -141 -1
-229 29 -310 104 -124 114 -189 296 -212 596 -6 74 -11 150 -11 168 l0 33 596
0 596 0 -6 88 c-36 483 -216 758 -543 827 -63 13 -243 18 -318 8z m257 -109
c95 -31 180 -134 229 -278 27 -81 55 -239 61 -341 l2 -50 -432 -3 c-238 -1
-432 1 -432 5 0 5 7 53 15 108 64 447 267 651 557 559z"/>
<path d="M23532 3013 c-23 -137 -42 -254 -42 -260 0 -8 14 -13 33 -13 33 0 35
2 76 99 90 210 157 282 289 310 65 14 622 15 622 2 0 -8 -276 -465 -881 -1459
-99 -162 -179 -298 -179 -303 0 -5 267 -8 677 -7 l677 3 18 100 c10 55 33 182
51 283 l34 183 -39 -3 -39 -3 -38 -96 c-91 -232 -185 -329 -345 -358 -57 -10
-586 -16 -586 -6 0 5 127 214 570 940 161 264 337 553 391 641 54 89 102 169
105 178 6 15 -53 16 -672 16 l-679 0 -43 -247z"/>
<path d="M16380 2445 l0 -95 445 0 445 0 0 95 0 95 -445 0 -445 0 0 -95z"/>
</g>
</svg>
