<svg width="676.7" height="75.201" viewBox="0 0 676.7 75.201" xmlns="http://www.w3.org/2000/svg"><g id="svgGroup" stroke-linecap="round" fill-rule="evenodd" font-size="9pt" stroke="#000" stroke-width="0.25mm" fill="#000" style="stroke:#000;stroke-width:0.25mm;fill:#000"><path d="M 36.4 74 L 25.7 74 L 0 6.5 L 9.3 2.9 L 31.3 63.6 L 53.4 3.2 L 62 6.5 L 36.4 74 Z M 379.2 71 L 370.3 75.2 L 361.6 56.2 A 30.586 30.586 0 0 0 359.009 51.626 Q 356.503 48.022 353.3 46.1 Q 348.945 43.487 342.464 43.15 A 37.847 37.847 0 0 0 340.5 43.1 L 339 43.1 L 339 74 L 329.5 74 L 329.5 4.2 Q 334.8 3.7 339.65 3.45 A 187.94 187.94 0 0 1 345.966 3.235 A 226.267 226.267 0 0 1 350 3.2 Q 362.8 3.2 369.25 8.4 A 17.414 17.414 0 0 1 373.88 13.934 Q 375.7 17.444 375.7 21.8 A 19.88 19.88 0 0 1 375.049 27.02 A 14.672 14.672 0 0 1 371.35 33.55 Q 367 38 358.8 40.2 A 23.656 23.656 0 0 1 362.229 42.063 A 20.427 20.427 0 0 1 363.6 43.05 Q 365.569 44.597 367.405 47.11 A 29.29 29.29 0 0 1 367.65 47.45 Q 369.6 50.2 371.6 54.6 L 379.2 71 Z M 142.3 55.8 L 142.3 22 L 151.3 22 L 151.3 54.6 A 22.981 22.981 0 0 0 151.554 58.134 Q 151.842 59.981 152.457 61.469 A 10.136 10.136 0 0 0 153.9 63.95 A 8.404 8.404 0 0 0 159.013 66.971 A 12.807 12.807 0 0 0 161.5 67.2 Q 165.6 67.2 169.45 65.55 Q 173.3 63.9 176.3 61.1 L 176.3 22 L 185.3 22 L 185.3 60.5 A 15.602 15.602 0 0 0 185.402 62.354 Q 185.734 65.116 187.15 66.15 Q 189 67.5 191.2 67.5 L 189.3 74.5 Q 180 74.5 177.8 67.1 Q 174.3 70.7 169.7 72.95 Q 165.1 75.2 159.8 75.2 Q 155.3 75.2 151.3 73.3 A 14.441 14.441 0 0 1 145.79 68.661 A 18.266 18.266 0 0 1 144.8 67.15 A 16.24 16.24 0 0 1 143.136 63.057 Q 142.3 59.905 142.3 55.8 Z M 449.5 55.8 L 449.5 22 L 458.5 22 L 458.5 54.6 A 22.981 22.981 0 0 0 458.754 58.134 Q 459.042 59.981 459.657 61.469 A 10.136 10.136 0 0 0 461.1 63.95 A 8.404 8.404 0 0 0 466.213 66.971 A 12.807 12.807 0 0 0 468.7 67.2 Q 472.8 67.2 476.65 65.55 Q 480.5 63.9 483.5 61.1 L 483.5 22 L 492.5 22 L 492.5 60.5 A 15.602 15.602 0 0 0 492.602 62.354 Q 492.934 65.116 494.35 66.15 Q 496.2 67.5 498.4 67.5 L 496.5 74.5 Q 487.2 74.5 485 67.1 Q 481.5 70.7 476.9 72.95 Q 472.3 75.2 467 75.2 Q 462.5 75.2 458.5 73.3 A 14.441 14.441 0 0 1 452.99 68.661 A 18.266 18.266 0 0 1 452 67.15 A 16.24 16.24 0 0 1 450.336 63.057 Q 449.5 59.905 449.5 55.8 Z M 584.1 74 L 575.1 74 L 575.1 22 L 583.8 22 L 583.8 30.7 Q 586.6 26.5 590.95 23.65 A 17.316 17.316 0 0 1 598.056 21.025 A 22.629 22.629 0 0 1 601.3 20.8 A 23.225 23.225 0 0 1 606.365 21.318 Q 611.459 22.456 614.45 26.1 Q 618.575 31.126 618.788 39.209 A 33.764 33.764 0 0 1 618.8 40.1 L 618.8 74 L 609.8 74 L 609.8 41.1 A 19.265 19.265 0 0 0 609.458 37.359 Q 609.019 35.145 608.019 33.397 A 10.966 10.966 0 0 0 607.15 32.1 A 8.579 8.579 0 0 0 600.873 28.747 A 12.061 12.061 0 0 0 599.8 28.7 A 13.122 13.122 0 0 0 592.951 30.664 A 17.353 17.353 0 0 0 591.1 31.95 Q 587 35.2 584.1 39.6 L 584.1 74 Z M 91.5 69.8 L 95.3 62.3 A 18.557 18.557 0 0 0 98.444 64.426 Q 99.998 65.27 101.85 65.95 A 24.073 24.073 0 0 0 109.461 67.387 A 27.464 27.464 0 0 0 110.3 67.4 Q 115.692 67.4 118.535 65.685 A 7.738 7.738 0 0 0 118.75 65.55 Q 121.6 63.7 121.6 60.8 A 7.123 7.123 0 0 0 121.286 58.653 A 6.212 6.212 0 0 0 120.55 57.1 A 6.384 6.384 0 0 0 119.621 56.006 Q 118.607 55.034 116.934 54.081 A 22.3 22.3 0 0 0 116.7 53.95 A 28.462 28.462 0 0 0 114.706 52.957 Q 112.59 51.995 109.601 50.946 A 103.602 103.602 0 0 0 108.6 50.6 A 46.616 46.616 0 0 1 104.202 48.857 Q 102.088 47.883 100.412 46.795 A 19.335 19.335 0 0 1 97.65 44.65 A 11.324 11.324 0 0 1 94.356 38.654 A 16.794 16.794 0 0 1 94 35.1 Q 94 29.1 99.25 24.95 Q 103.654 21.469 110.908 20.908 A 37.527 37.527 0 0 1 113.8 20.8 A 40.794 40.794 0 0 1 118.246 21.031 Q 120.554 21.284 122.57 21.815 A 25.234 25.234 0 0 1 122.7 21.85 Q 126.6 22.9 129.7 24.5 L 127.2 31.9 Q 124.5 30.3 121.05 29.3 A 25.024 25.024 0 0 0 116.567 28.453 A 31.837 31.837 0 0 0 113.4 28.3 A 20.632 20.632 0 0 0 110.463 28.495 Q 107.377 28.94 105.5 30.4 A 9.322 9.322 0 0 0 104.142 31.673 Q 103.44 32.492 103.105 33.365 A 4.529 4.529 0 0 0 102.8 35 A 4.921 4.921 0 0 0 104.295 38.552 A 7.082 7.082 0 0 0 104.9 39.1 Q 106.965 40.772 112.898 42.734 A 84.459 84.459 0 0 0 113.1 42.8 A 67.753 67.753 0 0 1 118.162 44.698 Q 124.089 47.217 126.9 50.1 Q 130.8 54.1 130.8 60.1 Q 130.8 66.848 125.549 70.855 A 16.618 16.618 0 0 1 125.15 71.15 Q 120.41 74.547 112.962 75.095 A 40.423 40.423 0 0 1 110 75.2 Q 104.1 75.2 99.35 73.7 A 30.883 30.883 0 0 1 95.51 72.215 Q 93.529 71.284 91.948 70.136 A 18.229 18.229 0 0 1 91.5 69.8 Z M 676.4 51.7 L 640 51.7 A 24.088 24.088 0 0 0 641.139 56.725 Q 642.475 60.538 645.1 63.1 Q 649.3 67.2 656.2 67.2 Q 660.7 67.2 664.3 66.25 Q 667.9 65.3 671.2 63.8 L 673.3 71.5 A 40.77 40.77 0 0 1 668.965 73.126 A 51.863 51.863 0 0 1 665.2 74.15 A 38.914 38.914 0 0 1 660.108 74.969 A 52.025 52.025 0 0 1 655.1 75.2 A 28.318 28.318 0 0 1 647.354 74.195 A 21.108 21.108 0 0 1 637.35 68.05 A 23.521 23.521 0 0 1 632.145 58.51 Q 630.8 53.845 630.8 48 A 35.359 35.359 0 0 1 631.633 40.178 A 28.84 28.84 0 0 1 633.75 34.05 A 24.642 24.642 0 0 1 638.766 26.968 A 22.887 22.887 0 0 1 642 24.35 A 21.048 21.048 0 0 1 652.259 20.878 A 26.205 26.205 0 0 1 654.3 20.8 Q 661.8 20.8 666.75 24.05 Q 671.7 27.3 674.2 32.8 A 28.185 28.185 0 0 1 676.626 42.664 A 33.434 33.434 0 0 1 676.7 44.9 A 75.204 75.204 0 0 1 676.409 51.597 A 69.426 69.426 0 0 1 676.4 51.7 Z M 512.4 56.1 L 512.4 31.7 L 503.4 31.7 L 503.4 23.9 L 512.6 23.9 L 514.5 7.5 L 521.4 7.5 L 521.4 23.9 L 535.8 23.9 L 535.8 31.7 L 521.4 31.7 L 521.4 56.8 A 21.559 21.559 0 0 0 521.568 59.596 Q 522.041 63.202 523.85 64.9 Q 526.3 67.2 529.7 67.2 Q 532.2 67.2 534.45 66.4 Q 536.7 65.6 538.6 64.5 L 541.1 71.7 A 18.546 18.546 0 0 1 539.482 72.556 Q 538.68 72.935 537.734 73.308 A 43.365 43.365 0 0 1 535.7 74.05 Q 532.3 75.2 528.6 75.2 Q 521.1 75.2 516.75 70.25 A 16.116 16.116 0 0 1 513.522 64.348 Q 512.759 61.917 512.515 58.98 A 34.777 34.777 0 0 1 512.4 56.1 Z M 237.8 26.2 L 237.8 22 L 246 22 L 246 61.4 A 12.15 12.15 0 0 0 246.102 63.036 Q 246.434 65.47 247.85 66.35 Q 249.7 67.5 251.9 67.5 L 250 74.5 A 17.722 17.722 0 0 1 245.735 74.028 Q 240.098 72.628 238.503 67.08 A 13.59 13.59 0 0 1 238.4 66.7 A 21.307 21.307 0 0 1 235.29 70.126 A 28.498 28.498 0 0 1 232.15 72.55 Q 228.2 75.2 222.1 75.2 Q 215.6 75.2 210.3 71.9 A 22.947 22.947 0 0 1 202.887 64.373 A 27.923 27.923 0 0 1 201.85 62.55 A 27.228 27.228 0 0 1 199.22 54.608 A 36.644 36.644 0 0 1 198.7 48.3 A 33.142 33.142 0 0 1 199.697 40.031 A 27.968 27.968 0 0 1 201.85 34.3 Q 205 28.1 210.55 24.45 A 22.297 22.297 0 0 1 221.745 20.844 A 27.388 27.388 0 0 1 223.3 20.8 A 22.584 22.584 0 0 1 228.094 21.29 A 18.703 18.703 0 0 1 231.45 22.35 A 26.002 26.002 0 0 1 235.737 24.644 A 22.103 22.103 0 0 1 237.8 26.2 Z M 263.4 57.7 L 263.4 0 L 272.4 0 L 272.4 56.8 A 20.644 20.644 0 0 0 272.588 59.688 Q 273.05 62.952 274.65 64.8 A 7.363 7.363 0 0 0 279.234 67.276 A 10.724 10.724 0 0 0 280.9 67.4 Q 282.8 67.4 284.65 66.95 A 22.192 22.192 0 0 0 286.113 66.544 Q 287.048 66.247 287.8 65.9 L 290 73.2 Q 288.601 73.822 286.688 74.323 A 34.978 34.978 0 0 1 285.55 74.6 A 23.816 23.816 0 0 1 282.395 75.085 A 30.514 30.514 0 0 1 279.7 75.2 A 20.862 20.862 0 0 1 274.81 74.646 A 17.544 17.544 0 0 1 271.4 73.45 A 12.683 12.683 0 0 1 266.075 68.685 A 15.856 15.856 0 0 1 265.55 67.8 Q 263.816 64.654 263.48 60.012 A 32.105 32.105 0 0 1 263.4 57.7 Z M 398.8 71.75 A 24.559 24.559 0 0 0 403.398 73.84 Q 407.453 75.2 412.1 75.2 Q 419.5 75.2 425.35 71.8 Q 431.2 68.4 434.6 62.25 A 26.255 26.255 0 0 0 437.253 55.109 A 34.184 34.184 0 0 0 438 47.8 A 34.542 34.542 0 0 0 437.515 41.891 A 25.795 25.795 0 0 0 434.55 33.45 Q 431.1 27.4 425.25 24.1 A 24.848 24.848 0 0 0 420.609 22.073 A 27.738 27.738 0 0 0 412.1 20.8 A 31.325 31.325 0 0 0 410.52 20.839 A 26.169 26.169 0 0 0 398.9 24.1 Q 393 27.4 389.6 33.5 A 26.023 26.023 0 0 0 386.851 41.09 A 35.006 35.006 0 0 0 386.2 48 A 34.82 34.82 0 0 0 386.465 52.354 A 27.451 27.451 0 0 0 389.55 62.15 Q 392.9 68.3 398.8 71.75 Z M 80 74 L 71 74 L 71 22 L 80 22 L 80 74 Z M 559.1 74 L 550.1 74 L 550.1 22 L 559.1 22 L 559.1 74 Z M 412.1 67.2 Q 420 67.2 424.4 61.85 A 18.802 18.802 0 0 0 428.219 53.76 A 27.105 27.105 0 0 0 428.8 48 Q 428.8 42.8 426.6 38.45 A 19.198 19.198 0 0 0 422.428 32.881 A 18.17 18.17 0 0 0 420.65 31.45 Q 416.9 28.8 412.1 28.8 A 19.249 19.249 0 0 0 406.874 29.472 A 14.037 14.037 0 0 0 399.8 34 A 17.878 17.878 0 0 0 396.126 41.374 Q 395.4 44.306 395.4 47.8 Q 395.4 53 397.6 57.45 A 19.437 19.437 0 0 0 401.13 62.49 A 17.627 17.627 0 0 0 403.55 64.55 Q 407.3 67.2 412.1 67.2 Z M 237 60.7 L 237 32.8 Q 234.3 30.9 231.05 29.75 Q 227.8 28.6 224.2 28.6 A 15.924 15.924 0 0 0 219.229 29.354 A 14.024 14.024 0 0 0 215.75 31.05 A 16.301 16.301 0 0 0 210.731 36.474 A 19.962 19.962 0 0 0 210 37.85 A 20.663 20.663 0 0 0 208.247 43.527 A 27.678 27.678 0 0 0 207.9 48 Q 207.9 53.6 210 57.95 A 17.602 17.602 0 0 0 213.106 62.496 A 15.697 15.697 0 0 0 215.8 64.75 Q 219.5 67.2 224.1 67.2 Q 227.9 67.2 231.3 65.35 Q 234.7 63.5 237 60.7 Z M 339 11.6 L 339 35.1 L 350 35.1 A 26.489 26.489 0 0 0 354.923 34.669 Q 358.852 33.925 361.7 31.9 Q 366.2 28.7 366.2 22.7 A 9.811 9.811 0 0 0 362.927 15.236 A 13.272 13.272 0 0 0 362 14.45 A 13.923 13.923 0 0 0 357.636 12.228 Q 355.707 11.618 353.377 11.37 A 31.944 31.944 0 0 0 350 11.2 Q 346.826 11.2 344.262 11.287 A 118.974 118.974 0 0 0 343.9 11.3 Q 341.2 11.4 339 11.6 Z M 639.9 44.4 L 668.4 44.4 A 24.355 24.355 0 0 0 667.996 39.815 Q 667.5 37.231 666.396 35.207 A 12.422 12.422 0 0 0 664.6 32.7 A 12.488 12.488 0 0 0 657.639 28.924 A 18.395 18.395 0 0 0 654.1 28.6 A 13.58 13.58 0 0 0 648.988 29.535 A 12.524 12.524 0 0 0 644.5 32.65 Q 640.7 36.7 639.9 44.4 Z M 71.137 11.288 A 5.973 5.973 0 0 0 75.5 13.1 A 8.175 8.175 0 0 0 76.996 12.969 A 5.647 5.647 0 0 0 80.1 11.35 Q 81.8 9.6 81.8 6.8 A 7.26 7.26 0 0 0 81.8 6.719 A 6.06 6.06 0 0 0 79.95 2.35 A 7.395 7.395 0 0 0 79.892 2.293 A 6.059 6.059 0 0 0 75.5 0.5 A 8.264 8.264 0 0 0 73.844 0.658 A 5.661 5.661 0 0 0 70.9 2.2 A 5.588 5.588 0 0 0 69.429 4.832 A 7.987 7.987 0 0 0 69.2 6.8 A 5.992 5.992 0 0 0 69.692 9.219 A 6.643 6.643 0 0 0 71.05 11.2 A 7.466 7.466 0 0 0 71.137 11.288 Z M 550.237 11.288 A 5.973 5.973 0 0 0 554.6 13.1 A 8.175 8.175 0 0 0 556.096 12.969 A 5.647 5.647 0 0 0 559.2 11.35 Q 560.9 9.6 560.9 6.8 A 7.26 7.26 0 0 0 560.9 6.719 A 6.06 6.06 0 0 0 559.05 2.35 A 7.395 7.395 0 0 0 558.992 2.293 A 6.059 6.059 0 0 0 554.6 0.5 A 8.264 8.264 0 0 0 552.944 0.658 A 5.661 5.661 0 0 0 550 2.2 A 5.588 5.588 0 0 0 548.529 4.832 A 7.987 7.987 0 0 0 548.3 6.8 A 5.992 5.992 0 0 0 548.792 9.219 A 6.643 6.643 0 0 0 550.15 11.2 A 7.466 7.466 0 0 0 550.237 11.288 Z" vector-effect="non-scaling-stroke"/></g></svg>