<?xml version="1.0" standalone="no"?>
<!DOCTYPE svg PUBLIC "-//W3C//DTD SVG 20010904//EN"
 "http://www.w3.org/TR/2001/REC-SVG-20010904/DTD/svg10.dtd">
<svg version="1.0" xmlns="http://www.w3.org/2000/svg"
 width="736.000000pt" height="736.000000pt" viewBox="0 0 736.000000 736.000000"
 preserveAspectRatio="xMidYMid meet">

<g transform="translate(0.000000,736.000000) scale(0.100000,-0.100000)"
fill="red" stroke="none">
<path d="M3697 5544 c-179 -176 -207 -443 -78 -735 69 -157 137 -261 454 -700
139 -192 194 -322 204 -479 9 -152 -36 -297 -118 -379 -57 -57 -69 -54 -69 17
0 206 -48 289 -445 762 -138 166 -205 261 -263 376 -67 133 -87 211 -87 343
l0 113 -52 -57 c-139 -152 -186 -367 -127 -571 48 -166 160 -370 299 -544 107
-135 244 -343 304 -463 69 -138 86 -205 86 -347 0 -104 -3 -121 -27 -172 -24
-52 -110 -158 -128 -158 -4 0 -10 33 -13 74 -6 84 -26 137 -88 228 -80 117
-331 472 -449 633 -147 200 -174 244 -197 322 -21 72 0 70 -185 17 -378 -108
-716 -299 -882 -500 -139 -168 -184 -339 -135 -514 61 -224 256 -416 584 -575
278 -135 550 -211 955 -267 128 -18 750 -18 875 0 501 70 849 180 1128 356
573 361 581 858 22 1222 -175 114 -411 214 -654 278 -51 14 -95 27 -97 29 -2
2 -6 50 -10 108 -15 266 -74 386 -410 836 -191 255 -231 315 -269 398 -42 90
-62 176 -69 294 -3 52 -8 96 -9 98 -2 2 -25 -18 -50 -43z"/>
</g>
</svg>
