<?xml version="1.0" standalone="no"?>
<!DOCTYPE svg PUBLIC "-//W3C//DTD SVG 20010904//EN"
 "http://www.w3.org/TR/2001/REC-SVG-20010904/DTD/svg10.dtd">
<svg version="1.0" xmlns="http://www.w3.org/2000/svg"
 width="711.000000pt" height="230.000000pt" viewBox="0 0 711.000000 230.000000"
 preserveAspectRatio="xMidYMid meet">

<g transform="translate(0.000000,230.000000) scale(0.100000,-0.100000)"
fill="#ffffff" stroke="none">
<path d="M5378 1591 c-131 -53 -150 -65 -146 -95 3 -18 11 -21 56 -24 l52 -3
0 -123 c0 -68 3 -151 6 -185 l7 -62 -29 8 c-16 4 -78 8 -139 8 -96 0 -116 -3
-153 -23 -141 -75 -232 -235 -219 -387 11 -135 77 -235 191 -289 107 -51 213
-42 305 24 24 18 44 30 45 28 1 -2 9 -20 19 -41 12 -27 23 -37 40 -37 32 0
138 36 207 70 8 4 16 22 18 40 3 28 1 32 -15 26 -34 -14 -68 -17 -82 -7 -11 7
-15 103 -19 555 -3 382 -8 549 -16 555 -7 5 -55 -9 -128 -38z m-76 -584 l43
-33 3 -154 c1 -85 -1 -182 -5 -214 -7 -54 -11 -62 -42 -80 -23 -13 -53 -20
-95 -20 -84 -1 -131 25 -173 94 -18 29 -30 56 -28 60 2 4 5 64 6 133 1 113 4
130 22 155 12 15 25 29 29 30 5 2 15 10 23 18 24 25 78 43 127 44 38 0 55 -6
90 -33z"/>
<path d="M481 1519 c-184 -32 -299 -207 -251 -380 24 -87 118 -172 275 -250
54 -27 106 -56 115 -63 8 -8 29 -21 47 -30 33 -17 76 -80 87 -129 16 -70 -42
-161 -119 -188 -55 -19 -152 -16 -193 5 -61 32 -155 152 -167 212 -5 30 -10
34 -35 34 l-30 0 0 -153 0 -152 63 -18 c35 -10 83 -20 108 -22 24 -2 46 -5 49
-6 18 -5 174 3 215 12 79 18 163 67 201 119 44 59 74 139 74 198 0 149 -77
234 -337 372 -141 76 -167 98 -183 155 -23 83 7 152 85 192 44 23 121 21 180
-6 67 -30 88 -52 119 -124 39 -89 40 -92 70 -95 l26 -3 0 139 0 139 -87 21
c-104 26 -237 35 -312 21z"/>
<path d="M2833 1228 c-35 -43 -86 -91 -128 -119 -52 -36 -70 -54 -70 -71 0
-21 5 -23 51 -26 l51 -3 5 -227 c5 -256 14 -295 80 -345 46 -35 127 -54 172
-40 41 13 155 84 155 97 1 5 -6 17 -15 27 -14 15 -20 15 -61 3 -51 -15 -85
-10 -125 18 l-28 19 0 225 0 224 104 0 104 0 16 35 c10 19 14 40 11 45 -4 6
-56 10 -121 10 l-114 0 0 84 c0 85 -5 116 -20 116 -5 0 -35 -32 -67 -72z"/>
<path d="M6824 1111 c-43 -19 -113 -83 -116 -104 -1 -7 -4 15 -7 48 l-6 60
-35 -1 c-31 -1 -131 -40 -200 -79 -15 -8 -26 -24 -28 -41 -3 -26 -2 -27 34
-21 64 11 64 11 64 -249 0 -231 0 -234 -22 -248 -13 -8 -35 -18 -50 -21 -23
-6 -28 -13 -28 -36 l0 -29 205 0 205 0 0 30 c0 28 -3 30 -51 36 -77 10 -78 14
-78 252 l0 203 32 35 c26 28 42 36 84 41 49 5 53 4 88 -30 21 -20 42 -34 46
-31 5 3 9 45 9 94 0 75 -3 91 -17 98 -32 15 -87 12 -129 -7z"/>
<path d="M1277 1106 c-45 -16 -142 -74 -164 -98 -33 -36 -36 -149 -4 -181 16
-16 124 42 115 62 -24 56 -8 98 47 126 90 47 159 -11 159 -133 l0 -59 -47 -17
c-179 -64 -236 -90 -281 -131 -47 -42 -47 -43 -47 -106 0 -109 47 -169 143
-185 51 -8 128 15 191 57 24 17 44 29 45 27 2 -2 13 -20 25 -40 28 -46 47 -48
139 -12 129 49 132 51 132 84 0 33 1 33 -54 21 -21 -5 -44 -7 -50 -5 -8 3 -13
64 -15 202 -3 220 -10 271 -48 320 -54 71 -188 103 -286 68z m153 -466 l0
-100 -42 -20 c-49 -24 -88 -25 -127 -5 -32 16 -41 33 -41 79 0 41 45 86 120
120 91 41 90 41 90 -74z"/>
<path d="M1949 1106 c-35 -14 -141 -60 -169 -75 -8 -4 -16 -20 -18 -35 -3 -25
-2 -26 40 -24 41 3 43 1 55 -32 13 -38 17 -317 7 -408 -7 -52 -7 -52 -55 -69
-43 -15 -49 -21 -49 -45 l0 -28 190 0 190 0 0 29 c0 24 -5 31 -27 36 -16 3
-38 14 -51 25 -22 18 -22 20 -20 246 l3 228 50 25 c33 18 66 26 98 26 43 0 52
-4 82 -36 l33 -36 7 -154 c4 -85 3 -185 -1 -224 -9 -70 -9 -70 -51 -90 -36
-16 -43 -24 -43 -47 l0 -28 118 1 c64 1 149 4 187 8 61 5 70 9 73 27 3 18 -5
23 -41 33 -26 6 -48 18 -52 28 -4 10 -10 117 -15 238 -4 126 -12 232 -19 249
-20 49 -73 108 -115 127 -47 21 -145 25 -197 7 -19 -6 -55 -28 -80 -50 -26
-21 -48 -38 -50 -38 -2 0 -4 21 -4 47 0 55 -14 62 -76 39z"/>
<path d="M3431 1109 c-42 -17 -146 -90 -166 -117 -21 -29 -29 -110 -14 -151
11 -27 35 -24 94 10 32 19 35 24 29 55 -3 19 -3 45 0 59 15 59 132 88 173 43
27 -30 43 -81 43 -134 0 -41 -3 -45 -39 -63 -21 -11 -54 -23 -72 -26 -55 -10
-221 -97 -243 -128 -28 -39 -29 -148 -2 -194 29 -47 90 -77 156 -77 45 0 68 7
129 39 70 38 74 39 85 21 6 -10 18 -28 27 -40 19 -24 30 -22 174 31 76 27 80
30 83 61 4 35 -1 37 -59 23 -21 -5 -42 -5 -49 -1 -9 6 -15 72 -21 226 -5 120
-13 232 -19 249 -13 40 -64 89 -112 109 -41 18 -159 21 -197 5z m157 -462 l3
-102 -46 -23 c-52 -25 -111 -28 -139 -7 -14 10 -21 31 -24 68 -4 46 -1 56 21
77 20 19 147 83 177 89 3 1 6 -45 8 -102z"/>
<path d="M4100 1106 c-19 -7 -68 -30 -107 -50 -63 -31 -73 -40 -73 -62 0 -24
2 -26 34 -20 56 11 61 -3 63 -203 0 -97 -2 -201 -5 -231 -7 -53 -9 -56 -49
-75 -34 -16 -42 -25 -43 -47 l0 -28 190 0 190 0 0 28 c0 24 -6 30 -49 45 l-48
17 -7 61 c-3 34 -6 139 -6 233 l0 171 33 21 c17 11 55 27 83 34 46 12 55 11
90 -6 67 -33 74 -59 74 -290 0 -221 -2 -231 -60 -243 -30 -6 -35 -11 -38 -39
l-3 -32 193 2 193 3 0 25 c0 20 -7 26 -38 35 -22 6 -44 20 -50 30 -8 13 -14
101 -17 240 l-5 220 -31 55 c-18 32 -49 68 -73 85 -82 58 -244 42 -312 -31
-32 -34 -39 -30 -39 21 0 43 -1 45 -27 44 -16 0 -44 -6 -63 -13z"/>
<path d="M5931 1101 c-63 -24 -70 -29 -137 -97 -70 -70 -96 -139 -95 -254 0
-134 13 -171 84 -247 94 -100 193 -135 324 -115 140 22 223 75 223 143 l0 38
-66 -31 c-55 -26 -80 -31 -138 -32 -82 0 -113 13 -167 71 -54 58 -71 91 -76
147 -2 28 -5 56 -7 61 -2 6 80 10 233 10 l236 0 -1 65 c-1 102 -53 183 -149
233 -59 30 -192 34 -264 8z m168 -76 c26 -13 59 -67 75 -120 6 -20 1 -21 -136
-23 -78 -2 -145 -5 -150 -8 -12 -7 -3 48 12 76 13 25 46 55 84 77 29 17 81 16
115 -2z"/>
</g>
</svg>
